# Blender 4.2.3 LTS
# www.blender.org
mtllib road4_reto.mtl
o Plane.004
v 10.718245 0.000000 2.923294
v 5.259801 0.000000 2.923294
v 10.718245 0.000001 7.923294
v 5.218245 0.000001 7.923294
v 10.718245 0.200000 2.923294
v 5.218245 0.200000 2.923294
v 10.718245 0.200001 7.923294
v 5.218245 0.200001 7.923294
v 10.918169 0.200000 2.923294
v 10.918169 0.200001 7.923294
v 5.018319 0.200000 2.923294
v 5.018320 0.200001 7.923294
v 10.718245 0.000000 3.846583
v 10.718245 0.000000 3.583332
v 5.218245 0.000000 3.583332
v 5.218245 0.000000 3.846583
v 10.718245 0.200000 3.846583
v 10.718245 0.200000 3.583332
v 5.218245 0.200000 3.583332
v 5.218245 0.200000 3.846583
v 10.918169 0.200000 3.844499
v 10.918169 0.200000 3.583332
v 5.018319 0.200000 3.583332
v 5.018319 0.200000 3.846583
v 7.974741 0.000000 2.923294
v 7.870183 0.000000 2.923294
v 7.974741 0.000001 7.923294
v 7.870183 0.000001 7.923294
v 7.974741 0.000000 3.846583
v 7.870183 0.000000 3.846583
v 7.974741 0.000000 3.583332
v 7.870183 0.000000 3.583332
v 5.218245 0.000000 5.001688
v 5.218245 0.200000 5.001688
v 5.018319 0.200000 5.001688
v 10.718245 0.000000 5.001687
v 10.718245 0.200000 5.001687
v 10.918169 0.200000 5.001687
v 7.974741 0.000000 5.001688
v 7.870183 0.000000 5.001688
v 5.218245 0.000000 5.238115
v 5.218245 0.200000 5.292784
v 5.018320 0.200000 5.298638
v 7.974741 0.000000 5.238114
v 7.870183 0.000000 5.238114
v 10.718245 0.000000 5.292783
v 10.718245 0.200000 5.292783
v 10.918168 0.200000 5.292783
v 5.218245 0.000000 6.448578
v 5.218245 0.200000 6.448578
v 5.018321 0.200000 6.448578
v 7.974741 0.000000 6.448578
v 7.870183 0.000000 6.448578
v 10.718245 0.000000 6.448577
v 10.718245 0.200000 6.448577
v 10.918169 0.200000 6.448577
v 5.218245 0.000001 6.776128
v 5.218245 0.200001 6.776128
v 5.018321 0.200001 6.776128
v 7.974741 0.000001 6.776128
v 7.870183 0.000001 6.776128
v 10.718245 0.000001 6.776127
v 10.718245 0.200001 6.776127
v 10.918169 0.200001 6.776127
v 5.218245 0.000001 7.797443
v 5.218245 0.200001 7.797443
v 5.018320 0.200001 7.797443
v 7.974741 0.000001 7.797442
v 7.870183 0.000001 7.797442
v 10.718245 0.000001 7.797442
v 10.718245 0.200001 7.797442
v 10.918169 0.200001 7.797442
v 7.974741 0.052329 2.923294
v 7.870183 0.052329 2.923294
v 7.974741 0.052329 3.846583
v 7.870183 0.052329 3.846583
v 7.974741 0.052329 3.583332
v 7.870183 0.052329 3.583332
v 7.974741 0.052329 5.001688
v 7.870183 0.052329 5.001688
v 7.974741 0.052329 5.238114
v 7.870183 0.052329 5.238114
v 7.974741 0.052329 6.448578
v 7.870183 0.052329 6.448578
v 7.974741 0.052330 6.776128
v 7.870183 0.052330 6.776128
v 7.974741 0.052330 7.797442
v 7.870183 0.052330 7.797442
v 10.718245 0.000001 12.923294
v 5.259802 0.000001 12.923294
v 10.718245 0.200001 12.923294
v 5.218245 0.200001 12.923294
v 10.918170 0.200001 12.923294
v 5.018320 0.200001 12.923294
v 10.718245 0.000001 12.000004
v 10.718245 0.000001 12.263256
v 5.218245 0.000001 12.263256
v 5.218245 0.000001 12.000004
v 10.718245 0.200001 12.000004
v 10.718245 0.200001 12.263256
v 5.218245 0.200001 12.263256
v 5.218245 0.200001 12.000004
v 10.918170 0.200001 12.002089
v 10.918170 0.200001 12.263256
v 5.018320 0.200001 12.263256
v 5.018320 0.200001 12.000004
v 7.974742 0.000001 12.923294
v 7.870184 0.000001 12.923294
v 7.974742 0.000001 12.000004
v 7.870184 0.000001 12.000004
v 7.974742 0.000001 12.263256
v 7.870184 0.000001 12.263256
v 5.218245 0.000001 10.844900
v 5.218245 0.200001 10.844900
v 5.018320 0.200001 10.844900
v 10.718245 0.000001 10.844899
v 10.718245 0.200001 10.844899
v 10.918169 0.200001 10.844899
v 7.974741 0.000001 10.844900
v 7.870183 0.000001 10.844900
v 5.218245 0.000001 10.608473
v 5.218245 0.200001 10.553804
v 5.018321 0.200001 10.547950
v 7.974741 0.000001 10.608473
v 7.870183 0.000001 10.608473
v 10.718245 0.000001 10.553803
v 10.718245 0.200001 10.553803
v 10.918169 0.200001 10.553803
v 5.218245 0.000001 9.398009
v 5.218245 0.200001 9.398009
v 5.018321 0.200001 9.398009
v 7.974741 0.000001 9.398009
v 7.870183 0.000001 9.398009
v 10.718245 0.000001 9.398009
v 10.718245 0.200001 9.398009
v 10.918169 0.200001 9.398009
v 5.218245 0.000001 9.070459
v 5.218245 0.200001 9.070459
v 5.018321 0.200001 9.070459
v 7.974741 0.000001 9.070459
v 7.870183 0.000001 9.070459
v 10.718245 0.000001 9.070459
v 10.718245 0.200001 9.070459
v 10.918169 0.200001 9.070459
v 5.218245 0.000001 8.049145
v 5.218245 0.200001 8.049145
v 5.018320 0.200001 8.049145
v 7.974741 0.000001 8.049145
v 7.870183 0.000001 8.049145
v 10.718245 0.000001 8.049145
v 10.718245 0.200001 8.049145
v 10.918169 0.200001 8.049145
v 7.974742 0.052330 12.923294
v 7.870184 0.052330 12.923294
v 7.974742 0.052330 12.000004
v 7.870184 0.052330 12.000004
v 7.974742 0.052330 12.263256
v 7.870184 0.052330 12.263256
v 7.974741 0.052330 10.844900
v 7.870183 0.052330 10.844900
v 7.974741 0.052330 10.608473
v 7.870183 0.052330 10.608473
v 7.974741 0.052330 9.398009
v 7.870183 0.052330 9.398009
v 7.974741 0.052330 9.070459
v 7.870183 0.052330 9.070459
v 7.974741 0.052330 8.049145
v 7.870183 0.052330 8.049145
v 10.732588 0.000000 2.890901
v 10.732588 0.200000 2.890901
v 10.930802 0.200000 2.916996
v 8.012555 0.000000 2.532802
v 7.908892 0.000000 2.519154
v 10.751036 0.000000 2.860658
v 10.751036 0.200000 2.860658
v 10.944149 0.200000 2.912402
v 8.101015 0.000000 2.150586
v 8.000020 0.000000 2.123525
v 10.773274 0.000000 2.833081
v 10.773274 0.200000 2.833081
v 10.957980 0.200000 2.909589
v 8.238607 0.000000 1.783187
v 8.142009 0.000000 1.743175
v 10.798922 0.000000 2.808643
v 10.798922 0.200000 2.808643
v 10.972061 0.200000 2.908605
v 8.422978 0.000000 1.436890
v 8.332428 0.000000 1.384612
v 10.827539 0.000000 2.787762
v 10.827539 0.200000 2.787762
v 10.986151 0.200000 2.909468
v 8.650972 0.000000 1.117621
v 8.568021 0.000000 1.053971
v 10.858638 0.000000 2.770794
v 10.858638 0.200000 2.770794
v 11.000006 0.200000 2.912162
v 8.918688 0.000000 0.830843
v 8.844754 0.000000 0.756910
v 10.891685 0.000000 2.758031
v 10.891685 0.200000 2.758031
v 11.013391 0.200000 2.916642
v 9.221546 0.000000 0.581462
v 9.157895 0.000000 0.498511
v 10.926115 0.000000 2.749691
v 10.926115 0.200000 2.749691
v 11.026078 0.200000 2.922830
v 9.554364 0.000000 0.373745
v 9.502085 0.000000 0.283196
v 10.961340 0.000000 2.745916
v 10.961340 0.200000 2.745916
v 11.037848 0.200000 2.930622
v 9.911448 0.000000 0.211247
v 9.871434 0.000000 0.114649
v 10.996756 0.000000 2.746771
v 10.996756 0.200000 2.746771
v 11.048500 0.200000 2.939883
v 10.286686 0.000000 0.096748
v 10.259624 -0.000000 -0.004246
v 11.031757 0.000000 2.752242
v 11.031757 0.200000 2.752242
v 11.057853 0.200000 2.950455
v 10.673659 0.000000 0.032207
v 10.660011 -0.000000 -0.071455
v 11.065744 0.000000 2.762234
v 11.065744 0.200000 2.762234
v 11.065745 0.200000 2.962158
v 11.065746 0.000000 0.018729
v 11.065745 -0.000000 -0.085829
v 8.101015 0.035865 2.150586
v 8.000020 0.035865 2.123525
v 8.238607 0.035865 1.783187
v 8.142009 0.035865 1.743175
v 8.422978 0.035865 1.436890
v 8.332428 0.035865 1.384612
v 8.918688 0.035865 0.830843
v 8.844754 0.035865 0.756910
v 9.221546 0.035865 0.581462
v 9.157895 0.035865 0.498511
v 9.554364 0.035865 0.373745
v 9.502085 0.035865 0.283196
v 9.911448 0.035865 0.211247
v 9.871434 0.035865 0.114649
v 10.286686 0.035865 0.096748
v 10.259624 0.035865 -0.004246
v 10.673659 0.035865 0.032207
v 10.660011 0.035865 -0.071455
v 5.259801 0.000000 2.500784
v 5.218245 0.200000 2.500784
v 5.018319 0.200000 2.500784
v 7.870183 0.000000 2.500784
v 5.259801 0.000000 2.108187
v 5.218245 0.200000 2.108187
v 5.018319 0.200000 2.108187
v 7.870183 0.000000 2.119472
v 5.259801 0.000000 1.773266
v 5.218245 0.200000 1.773266
v 5.018319 0.200000 1.773266
v 7.870183 0.000000 1.737121
v 5.259801 0.000000 1.456234
v 5.218245 0.200000 1.456234
v 5.018319 0.200000 1.456234
v 7.870183 0.000000 1.456234
v 5.259801 0.000000 1.156130
v 5.218245 0.200000 1.156130
v 5.018319 0.200000 1.156130
v 7.870183 0.000000 1.156130
v 5.259801 0.000000 0.882556
v 5.218245 0.200000 0.882556
v 5.018319 0.200000 0.882556
v 7.870183 0.000000 0.882556
v 5.259801 0.000000 0.623504
v 5.218245 0.200000 0.623504
v 5.018319 0.200000 0.623504
v 7.870183 0.000000 0.623504
v 5.259801 0.000000 0.396792
v 5.218245 0.200000 0.396792
v 5.018319 0.200000 0.396792
v 7.870183 0.000000 0.396792
v 5.259801 0.000000 0.197530
v 5.218245 0.200000 0.197530
v 5.018319 0.200000 0.197530
v 7.870183 0.000000 0.197530
v 5.259801 0.000000 0.010608
v 5.218245 0.200000 0.010608
v 5.018319 0.200000 0.010608
v 7.870183 0.000000 0.010608
v 7.989311 0.000000 0.004473
v 7.987234 0.000000 0.197587
v 7.987664 0.000000 0.389438
v 7.990573 0.000000 0.619356
v 7.990480 0.000000 0.875501
v 7.993708 0.001339 1.140312
v 7.994048 0.000000 1.426653
v 7.996803 0.003024 1.741541
v 7.997581 0.000000 2.129663
v 7.886170 0.000000 2.508371
v 7.993708 -0.020822 1.140312
v 7.870049 0.031358 2.118194
v 7.870049 0.031358 1.736218
v 7.870049 -0.001269 1.456286
v 7.870049 -0.001269 1.156182
v 7.870049 -0.001269 0.882608
v 7.870049 -0.001269 0.623556
v 7.870049 -0.001269 0.396844
v 7.870049 -0.001269 0.197582
v 7.987100 -0.001269 0.197638
v 7.987530 -0.001269 0.389490
v 7.990439 -0.001269 0.619408
v 7.990346 -0.001269 0.875552
v 7.993574 0.000070 1.140364
v 7.993914 -0.001269 1.426705
v 7.996669 0.034382 1.741420
v 8.000805 0.031358 2.122040
v 7.870748 0.031529 1.736625
v 7.868697 0.030053 1.455738
v 7.868697 0.030053 0.623009
v 7.868697 0.030053 0.396296
v 7.986178 0.030053 0.388942
v 7.989087 0.030053 0.618860
v 7.992562 0.030053 1.426158
v 7.996091 0.034439 1.741045
v 7.868563 0.028784 0.882113
v 7.868563 0.028784 0.623061
v 7.988953 0.028784 0.618912
v 7.988860 0.028784 0.875057
vn -1.0000 -0.0000 -0.0000
vn 1.0000 -0.0000 -0.0000
vn 0.9942 0.1033 0.0313
vn -0.0000 1.0000 -0.0000
vn -0.0000 -0.0000 1.0000
vn -0.0000 -0.0000 -1.0000
vn 0.9942 0.1033 -0.0313
vn -0.9144 -0.0000 -0.4049
vn -0.8537 -0.0000 -0.5207
vn -0.7071 -0.0000 0.7071
vn -0.7784 -0.0000 -0.6277
vn -0.5303 -0.0000 -0.8478
vn -0.6898 -0.0000 -0.7240
vn -0.5894 -0.0000 -0.8078
vn -0.4790 -0.0000 -0.8778
vn -0.8832 -0.0000 -0.4690
vn -0.3603 -0.0000 -0.9328
vn -0.1655 -0.0000 -0.9862
vn -0.2354 -0.0000 -0.9719
vn -0.1066 -0.0000 -0.9943
vn 0.5295 -0.0000 0.8483
vn 0.0241 -0.0000 -0.9997
vn 0.8827 -0.0000 0.4700
vn 0.1544 -0.0000 -0.9880
vn 0.2821 -0.0000 -0.9594
vn 0.9914 -0.0000 -0.1305
vn -0.2588 -0.0000 0.9659
vn 0.8660 -0.0000 -0.5000
vn 0.6357 -0.0000 0.7720
vn 0.2919 -0.0000 0.9565
vn 0.5000 -0.0000 -0.8660
vn 0.9365 -0.0000 0.3507
vn -0.6365 -0.0000 -0.7713
vn -0.9239 -0.0000 0.3827
vn -0.2929 -0.0000 -0.9562
vn 0.1645 -0.0000 0.9864
vn -0.9368 -0.0000 -0.3497
vn 0.9791 0.2034 -0.0000
vn 0.0006 1.0000 -0.0021
vn 0.0019 1.0000 0.0029
vn 0.0060 1.0000 -0.0028
vn 0.0207 0.9998 0.0077
vn 0.9987 -0.0500 -0.0068
vn -0.9999 -0.0149 0.0037
vn 0.0344 0.0372 0.9987
vn -0.0057 1.0000 -0.0025
vn -0.9944 0.1056 0.0022
vn -0.0344 -0.0182 -0.9992
vn -0.0624 -0.0342 -0.9975
vn -0.0119 0.9999 0.0040
vn -0.0050 1.0000 0.0023
vn -0.9988 -0.0494 -0.0000
vn -0.0585 -0.0346 -0.9977
vn 0.9945 -0.1050 -0.0000
vn 0.9945 -0.1046 -0.0000
vn 0.1267 0.0273 0.9916
vn -0.9945 0.1051 0.0017
vn 0.9945 -0.1052 -0.0000
vn -0.2323 -0.0153 -0.9725
vn -1.0000 -0.0043 -0.0000
vn 0.0384 -0.0161 -0.9991
vn -0.9945 0.1050 -0.0004
vn -0.0537 0.1429 0.9883
vn -0.0005 0.0409 0.9992
vn -0.0127 0.9999 -0.0097
vn 0.9993 0.0355 -0.0104
vn -0.0625 -0.0195 -0.9979
vn 0.0585 0.0193 0.9981
vn 0.9988 0.0494 0.0004
vn 0.9987 0.0492 -0.0126
vn -0.2322 -0.0275 -0.9723
vn 0.0344 0.0182 0.9992
vn -0.0354 0.0156 0.9992
vt 0.500568 0.000000
vt 0.500000 0.000000
vt 1.000000 0.000000
vt 0.700000 0.000000
vt 0.600000 0.000000
vt 0.527225 1.000000
vt 0.600000 1.000000
vt 0.700000 1.000000
vt 1.000000 1.000000
vt 0.527225 0.670545
vt 0.600000 0.670545
vt 0.700000 0.670545
vt 1.000000 0.670545
vt 1.000000 0.337212
vt 0.700000 0.337212
vt 0.600000 0.337212
vt 0.527225 0.000000
vt 0.527225 0.337212
vt 0.513612 0.337212
vt 0.513612 0.670545
vt 0.513612 0.000000
vt 0.513612 1.000000
vt 0.507602 1.000000
vt 0.507602 0.670545
vt 0.507602 0.000000
vt 0.507602 0.337212
vt 0.506737 0.337212
vt 0.506737 0.670545
vt 0.506737 0.000000
vt 0.506737 1.000000
vt 0.500568 1.000000
vt 0.500568 0.670545
vt 0.500568 0.337212
vt 0.500000 0.337212
vt 0.500000 0.670545
vt 0.500000 1.000000
vt 0.000000 0.000000
vt 0.586986 0.393601
vt 0.586986 0.393601
vt 0.586987 0.393601
vt 0.586986 0.393600
vt 0.586986 0.393601
vt 0.586986 0.393601
vt 0.586986 0.393600
vt 0.586985 0.393600
vt 0.586991 0.393604
s 0
usemtl Road.005
f 70/1/1 3/2/1 7/2/1 71/1/1
f 1/3/1 14/4/1 18/4/1 5/3/1
f 14/4/1 13/5/1 17/5/1 18/4/1
f 33/6/2 16/7/2 20/7/2 34/6/2
f 16/7/2 15/8/2 19/8/2 20/7/2
f 2/9/3 6/9/3 19/8/3 15/8/3
f 40/10/4 30/11/4 16/7/4 33/6/4
f 30/11/4 32/12/4 15/8/4 16/7/4
f 26/13/4 2/9/4 15/8/4 32/12/4
f 14/4/4 1/3/4 25/14/4 31/15/4
f 13/5/4 14/4/4 31/15/4 29/16/4
f 29/16/4 31/15/4 32/12/4 30/11/4
f 36/17/4 13/5/4 29/16/4 39/18/4
f 40/10/5 39/18/5 79/18/5 80/10/5
f 32/12/5 31/15/5 77/15/5 78/12/5
f 44/19/4 39/18/4 40/10/4 45/20/4
f 46/21/4 36/17/4 39/18/4 44/19/4
f 45/20/4 40/10/4 33/6/4 41/22/4
f 41/22/2 33/6/2 34/6/2 42/22/2
f 13/5/1 36/17/1 37/17/1 17/5/1
f 49/23/2 41/22/2 42/22/2 50/23/2
f 53/24/4 45/20/4 41/22/4 49/23/4
f 54/25/4 46/21/4 44/19/4 52/26/4
f 30/11/1 40/10/1 80/10/1 76/11/1
f 36/17/1 46/21/1 47/21/1 37/17/1
f 60/27/4 52/26/4 53/24/4 61/28/4
f 62/29/4 54/25/4 52/26/4 60/27/4
f 61/28/4 53/24/4 49/23/4 57/30/4
f 57/30/2 49/23/2 50/23/2 58/30/2
f 46/21/1 54/25/1 55/25/1 47/21/1
f 65/31/2 57/30/2 58/30/2 66/31/2
f 69/32/4 61/28/4 57/30/4 65/31/4
f 70/1/4 62/29/4 60/27/4 68/33/4
f 39/18/2 29/16/2 75/16/2 79/18/2
f 54/25/1 62/29/1 63/29/1 55/25/1
f 27/34/4 68/33/4 69/32/4 28/35/4
f 3/2/4 70/1/4 68/33/4 27/34/4
f 28/35/4 69/32/4 65/31/4 4/36/4
f 4/36/2 65/31/2 66/31/2 8/36/2
f 62/29/1 70/1/1 71/1/1 63/29/1
f 53/24/5 52/26/5 83/26/5 84/24/5
f 69/32/5 68/33/5 87/33/5 88/32/5
f 31/15/2 25/14/2 73/14/2 77/15/2
f 25/37/6 26/37/6 74/37/6 73/37/6
f 26/13/1 32/12/1 78/12/1 74/13/1
f 52/26/2 44/19/2 81/19/2 83/26/2
f 68/33/2 60/27/2 85/27/2 87/33/2
f 45/20/1 53/24/1 84/24/1 82/20/1
f 61/28/1 69/32/1 88/32/1 86/28/1
f 44/19/6 45/20/6 82/20/6 81/19/6
f 60/27/6 61/28/6 86/28/6 85/27/6
f 29/16/6 30/11/6 76/11/6 75/16/6
f 150/1/1 151/1/1 7/2/1 3/2/1
f 89/3/1 91/3/1 100/4/1 96/4/1
f 96/4/1 100/4/1 99/5/1 95/5/1
f 113/6/2 114/6/2 102/7/2 98/7/2
f 98/7/2 102/7/2 101/8/2 97/8/2
f 90/9/7 97/8/7 101/8/7 92/9/7
f 120/10/4 113/6/4 98/7/4 110/11/4
f 110/11/4 98/7/4 97/8/4 112/12/4
f 108/13/4 112/12/4 97/8/4 90/9/4
f 96/4/4 111/15/4 107/14/4 89/3/4
f 95/5/4 109/16/4 111/15/4 96/4/4
f 109/16/4 110/11/4 112/12/4 111/15/4
f 116/17/4 119/18/4 109/16/4 95/5/4
f 120/10/6 160/10/6 159/18/6 119/18/6
f 112/12/6 158/12/6 157/15/6 111/15/6
f 124/19/4 125/20/4 120/10/4 119/18/4
f 126/21/4 124/19/4 119/18/4 116/17/4
f 125/20/4 121/22/4 113/6/4 120/10/4
f 121/22/2 122/22/2 114/6/2 113/6/2
f 95/5/1 99/5/1 117/17/1 116/17/1
f 129/23/2 130/23/2 122/22/2 121/22/2
f 133/24/4 129/23/4 121/22/4 125/20/4
f 134/25/4 132/26/4 124/19/4 126/21/4
f 110/11/1 156/11/1 160/10/1 120/10/1
f 116/17/1 117/17/1 127/21/1 126/21/1
f 140/27/4 141/28/4 133/24/4 132/26/4
f 142/29/4 140/27/4 132/26/4 134/25/4
f 141/28/4 137/30/4 129/23/4 133/24/4
f 137/30/2 138/30/2 130/23/2 129/23/2
f 126/21/1 127/21/1 135/25/1 134/25/1
f 145/31/2 146/31/2 138/30/2 137/30/2
f 149/32/4 145/31/4 137/30/4 141/28/4
f 150/1/4 148/33/4 140/27/4 142/29/4
f 119/18/2 159/18/2 155/16/2 109/16/2
f 134/25/1 135/25/1 143/29/1 142/29/1
f 27/34/4 28/35/4 149/32/4 148/33/4
f 3/2/4 27/34/4 148/33/4 150/1/4
f 28/35/4 4/36/4 145/31/4 149/32/4
f 4/36/2 8/36/2 146/31/2 145/31/2
f 142/29/1 143/29/1 151/1/1 150/1/1
f 133/24/6 164/24/6 163/26/6 132/26/6
f 149/32/6 168/32/6 167/33/6 148/33/6
f 111/15/2 157/15/2 153/14/2 107/14/2
f 107/37/5 153/37/5 154/37/5 108/37/5
f 108/13/1 154/13/1 158/12/1 112/12/1
f 132/26/2 163/26/2 161/19/2 124/19/2
f 148/33/2 167/33/2 165/27/2 140/27/2
f 125/20/1 162/20/1 164/24/1 133/24/1
f 141/28/1 166/28/1 168/32/1 149/32/1
f 124/19/5 161/19/5 162/20/5 125/20/5
f 140/27/5 165/27/5 166/28/5 141/28/5
f 109/16/5 155/16/5 156/11/5 110/11/5
f 1/3/8 5/3/8 170/3/8 169/3/8
f 26/37/4 25/37/4 172/37/4 173/37/4
f 25/14/4 1/3/4 169/3/4 172/14/4
f 169/3/9 170/3/9 175/3/9 174/3/9
f 172/14/4 169/3/4 174/3/4 177/14/4
f 173/37/4 172/37/4 177/37/4 178/37/4
f 198/37/10 197/37/10 235/37/10 236/37/10
f 174/3/11 175/3/11 180/3/11 179/3/11
f 177/14/4 174/3/4 179/3/4 182/14/4
f 208/37/12 203/37/12 238/37/12 240/37/12
f 179/3/13 180/3/13 185/3/13 184/3/13
f 182/14/4 179/3/4 184/3/4 187/14/4
f 188/37/4 187/37/4 192/37/4 193/37/4
f 184/3/14 185/3/14 190/3/14 189/3/14
f 187/14/4 184/3/4 189/3/4 192/14/4
f 193/37/4 192/37/4 197/37/4 198/37/4
f 189/3/15 190/3/15 195/3/15 194/3/15
f 192/14/4 189/3/4 194/3/4 197/14/4
f 188/37/16 183/37/16 232/37/16 234/37/16
f 194/3/17 195/3/17 200/3/17 199/3/17
f 197/14/4 194/3/4 199/3/4 202/14/4
f 202/14/4 199/3/4 204/3/4 207/14/4
f 223/37/18 218/37/18 244/37/18 246/37/18
f 199/3/19 200/3/19 205/3/19 204/3/19
f 207/14/4 204/3/4 209/3/4 212/14/4
f 208/37/4 207/37/4 212/37/4 213/37/4
f 204/3/20 205/3/20 210/3/20 209/3/20
f 212/14/4 209/3/4 214/3/4 217/14/4
f 202/14/21 207/14/21 239/14/21 237/14/21
f 209/3/22 210/3/22 215/3/22 214/3/22
f 217/14/4 214/3/4 219/3/4 222/14/4
f 182/14/23 187/14/23 233/14/23 231/14/23
f 214/3/24 215/3/24 220/3/24 219/3/24
f 222/14/4 219/3/4 224/3/4 227/14/4
f 223/37/4 222/37/4 227/37/4 228/37/4
f 219/3/25 220/3/25 225/3/25 224/3/25
f 222/37/26 223/37/26 246/37/26 245/37/26
f 178/37/27 177/37/27 229/37/27 230/37/27
f 207/37/28 208/37/28 240/37/28 239/37/28
f 197/14/29 202/14/29 237/14/29 235/14/29
f 212/14/30 217/14/30 243/14/30 241/14/30
f 187/37/31 188/37/31 234/37/31 233/37/31
f 177/14/32 182/14/32 231/14/32 229/14/32
f 203/37/33 198/37/33 236/37/33 238/37/33
f 213/37/34 212/37/34 241/37/34 242/37/34
f 218/37/35 213/37/35 242/37/35 244/37/35
f 217/14/36 222/14/36 245/14/36 243/14/36
f 183/37/37 178/37/37 230/37/37 232/37/37
f 2/9/4 26/13/4 250/13/4 247/9/4
f 6/9/38 2/9/38 247/9/38 248/9/38
f 247/9/4 250/13/4 254/13/4 251/9/4
f 248/9/38 247/9/38 251/9/38 252/9/38
f 251/9/4 254/13/4 258/13/4 255/9/4
f 252/9/38 251/9/38 255/9/38 256/9/38
f 255/9/4 258/13/4 262/13/4 259/9/4
f 256/9/38 255/9/38 259/9/38 260/9/38
f 259/9/4 262/13/4 266/13/4 263/9/4
f 260/9/38 259/9/38 263/9/38 264/9/38
f 263/9/4 266/13/4 270/13/4 267/9/4
f 264/9/38 263/9/38 267/9/38 268/9/38
f 267/9/4 270/13/4 274/13/4 271/9/4
f 268/9/38 267/9/38 271/9/38 272/9/38
f 271/9/4 274/13/4 278/13/4 275/9/4
f 272/9/38 271/9/38 275/9/38 276/9/38
f 275/9/4 278/13/4 282/13/4 279/9/4
f 276/9/38 275/9/38 279/9/38 280/9/38
f 279/9/4 282/13/4 286/13/4 283/9/4
f 280/9/38 279/9/38 283/9/38 284/9/38
f 287/38/4 288/39/4 213/37/4 218/37/4
f 288/39/4 289/40/4 208/37/4 213/37/4
f 289/40/4 290/41/4 203/37/4 208/37/4
f 290/41/4 291/41/4 198/37/4 203/37/4
f 291/41/39 292/42/39 193/37/39 198/37/39
f 292/42/40 293/43/40 188/37/40 193/37/40
f 293/43/41 294/44/41 183/37/41 188/37/41
f 294/44/42 295/45/42 178/37/42 183/37/42
f 295/45/4 296/46/4 173/37/4 178/37/4
f 254/13/4 250/13/4 296/46/4 295/45/4
f 295/45/43 294/44/43 312/44/43 313/45/43
f 262/13/44 258/13/44 314/13/44 315/13/44
f 290/41/45 274/13/45 303/13/45 308/41/45
f 270/13/46 266/13/46 292/42/46 291/41/46
f 289/40/47 288/39/47 306/39/47 307/40/47
f 308/41/48 303/13/48 323/13/48 324/41/48
f 278/13/49 289/40/49 307/40/49 304/13/49
f 286/13/4 282/13/4 288/39/4 287/38/4
f 301/13/51 300/13/51 311/43/51 310/42/51
f 303/13/52 302/13/52 322/13/52 323/13/52
f 305/13/4 304/13/4 307/40/4 306/39/4
f 270/13/53 291/41/53 309/41/53 302/13/53
f 282/13/54 278/13/54 304/13/54 305/13/54
f 274/13/55 270/13/55 302/13/55 303/13/55
f 292/42/56 266/13/56 301/13/56 310/42/56
f 293/43/57 292/42/57 310/42/57 311/43/57
f 266/13/58 262/13/58 300/13/58 301/13/58
f 262/13/59 293/43/59 311/43/59 300/13/59
f 258/13/60 254/13/60 298/13/60 299/13/60
f 294/44/61 258/13/61 299/13/61 312/44/61
f 291/41/62 290/41/62 308/41/62 309/41/62
f 254/13/63 295/45/63 313/45/63 298/13/63
f 288/39/64 282/13/64 305/13/64 306/39/64
f 294/44/66 293/43/66 320/43/66 321/44/66
f 289/40/67 278/13/67 317/13/67 318/40/67
f 302/13/68 309/41/68 325/41/68 322/13/68
f 278/13/52 274/13/52 316/13/52 317/13/52
f 309/41/69 308/41/69 324/41/69 325/41/69
f 290/41/70 289/40/70 318/40/70 319/41/70
f 293/43/71 262/13/71 315/13/71 320/43/71
f 274/13/72 290/41/72 319/41/72 316/13/72
f 258/13/73 294/44/73 321/44/73 314/13/73
usemtl Linea.005
f 79/18/4 75/16/4 76/11/4 80/10/4
f 77/15/4 73/14/4 74/13/4 78/12/4
f 83/26/4 81/19/4 82/20/4 84/24/4
f 87/33/4 85/27/4 86/28/4 88/32/4
f 159/18/4 160/10/4 156/11/4 155/16/4
f 157/15/4 158/12/4 154/13/4 153/14/4
f 163/26/4 164/24/4 162/20/4 161/19/4
f 167/33/4 168/32/4 166/28/4 165/27/4
f 230/37/4 229/37/4 231/37/4 232/37/4
f 232/37/4 231/37/4 233/37/4 234/37/4
f 236/37/4 235/37/4 237/37/4 238/37/4
f 238/37/4 237/37/4 239/37/4 240/37/4
f 242/37/4 241/37/4 243/37/4 244/37/4
f 244/37/4 243/37/4 245/37/4 246/37/4
f 299/13/50 298/13/50 313/45/50 312/44/50
f 315/13/65 314/13/65 321/44/65 320/43/65
f 317/13/4 316/13/4 319/41/4 318/40/4
f 323/13/4 322/13/4 325/41/4 324/41/4
usemtl LineaAfuera.005
f 71/1/4 7/2/4 10/2/4 72/1/4
f 34/6/4 20/7/4 24/7/4 35/6/4
f 20/7/4 19/8/4 23/8/4 24/7/4
f 6/9/4 11/9/4 23/8/4 19/8/4
f 5/3/4 18/4/4 22/4/4 9/3/4
f 18/4/4 17/5/4 21/5/4 22/4/4
f 42/22/4 34/6/4 35/6/4 43/22/4
f 17/5/4 37/17/4 38/17/4 21/5/4
f 50/23/4 42/22/4 43/22/4 51/23/4
f 37/17/4 47/21/4 48/21/4 38/17/4
f 58/30/4 50/23/4 51/23/4 59/30/4
f 47/21/4 55/25/4 56/25/4 48/21/4
f 66/31/4 58/30/4 59/30/4 67/31/4
f 55/25/4 63/29/4 64/29/4 56/25/4
f 8/36/4 66/31/4 67/31/4 12/36/4
f 63/29/4 71/1/4 72/1/4 64/29/4
f 151/1/4 152/1/4 10/2/4 7/2/4
f 114/6/4 115/6/4 106/7/4 102/7/4
f 102/7/4 106/7/4 105/8/4 101/8/4
f 92/9/4 101/8/4 105/8/4 94/9/4
f 91/3/4 93/3/4 104/4/4 100/4/4
f 100/4/4 104/4/4 103/5/4 99/5/4
f 122/22/4 123/22/4 115/6/4 114/6/4
f 99/5/4 103/5/4 118/17/4 117/17/4
f 130/23/4 131/23/4 123/22/4 122/22/4
f 117/17/4 118/17/4 128/21/4 127/21/4
f 138/30/4 139/30/4 131/23/4 130/23/4
f 127/21/4 128/21/4 136/25/4 135/25/4
f 146/31/4 147/31/4 139/30/4 138/30/4
f 135/25/4 136/25/4 144/29/4 143/29/4
f 8/36/4 12/36/4 147/31/4 146/31/4
f 143/29/4 144/29/4 152/1/4 151/1/4
f 5/3/4 9/3/4 171/3/4 170/3/4
f 170/3/4 171/3/4 176/3/4 175/3/4
f 175/3/4 176/3/4 181/3/4 180/3/4
f 180/3/4 181/3/4 186/3/4 185/3/4
f 185/3/4 186/3/4 191/3/4 190/3/4
f 190/3/4 191/3/4 196/3/4 195/3/4
f 195/3/4 196/3/4 201/3/4 200/3/4
f 200/3/4 201/3/4 206/3/4 205/3/4
f 205/3/4 206/3/4 211/3/4 210/3/4
f 210/3/4 211/3/4 216/3/4 215/3/4
f 215/3/4 216/3/4 221/3/4 220/3/4
f 220/3/4 221/3/4 226/3/4 225/3/4
f 11/9/4 6/9/4 248/9/4 249/9/4
f 249/9/4 248/9/4 252/9/4 253/9/4
f 253/9/4 252/9/4 256/9/4 257/9/4
f 257/9/4 256/9/4 260/9/4 261/9/4
f 261/9/4 260/9/4 264/9/4 265/9/4
f 265/9/4 264/9/4 268/9/4 269/9/4
f 269/9/4 268/9/4 272/9/4 273/9/4
f 273/9/4 272/9/4 276/9/4 277/9/4
f 277/9/4 276/9/4 280/9/4 281/9/4
f 281/9/4 280/9/4 284/9/4 285/9/4
