# Blender 4.2.3 LTS
# www.blender.org
mtllib road2_reto.mtl
o Plane
v 5.000000 0.000000 2.750000
v 5.000000 -0.000000 -2.708443
v 5.000000 0.200000 2.750000
v 5.000000 0.200000 -2.750000
v 5.000000 0.200000 2.949925
v 5.000000 0.200000 -2.949925
v 4.076710 0.000000 2.750000
v 4.339962 0.000000 2.750000
v 4.339962 -0.000000 -2.750000
v 4.076710 -0.000000 -2.750000
v 4.076710 0.200000 2.750000
v 4.339962 0.200000 2.750000
v 4.339962 0.200000 -2.750000
v 4.076710 0.200000 -2.750000
v 4.078795 0.200000 2.949925
v 4.339962 0.200000 2.949925
v 4.339962 0.200000 -2.949925
v 4.076710 0.200000 -2.949925
v 5.000000 0.000000 0.006497
v 5.000000 -0.000000 -0.098061
v 4.076710 0.000000 0.006497
v 4.076710 -0.000000 -0.098061
v 4.339962 0.000000 0.006497
v 4.339962 -0.000000 -0.098061
v 2.921606 -0.000000 -2.750000
v 2.921606 0.200000 -2.750000
v 2.921606 0.200000 -2.949925
v 2.921606 0.000000 2.750000
v 2.921606 0.200000 2.750000
v 2.921606 0.200000 2.949925
v 2.921606 0.000000 0.006497
v 2.921606 -0.000000 -0.098061
v 2.685179 -0.000000 -2.750000
v 2.630510 0.200000 -2.750000
v 2.624656 0.200000 -2.949924
v 2.685179 0.000000 0.006497
v 2.685179 -0.000000 -0.098061
v 2.630510 0.000000 2.750000
v 2.630510 0.200000 2.750000
v 2.630510 0.200000 2.949924
v 1.474716 -0.000000 -2.750000
v 1.474716 0.200000 -2.750000
v 1.474716 0.200000 -2.949924
v 1.474716 0.000000 0.006497
v 1.474716 -0.000000 -0.098061
v 1.474716 0.000000 2.750000
v 1.474716 0.200000 2.750000
v 1.474716 0.200000 2.949924
v 1.147166 -0.000000 -2.750000
v 1.147166 0.200000 -2.750000
v 1.147166 0.200000 -2.949924
v 1.147166 0.000000 0.006497
v 1.147166 -0.000000 -0.098061
v 1.147166 0.000000 2.750000
v 1.147166 0.200000 2.750000
v 1.147166 0.200000 2.949924
v 0.125851 -0.000000 -2.750000
v 0.125851 0.200000 -2.750000
v 0.125851 0.200000 -2.949925
v 0.125851 0.000000 0.006497
v 0.125851 -0.000000 -0.098061
v 0.125851 0.000000 2.750000
v 0.125851 0.200000 2.750000
v 0.125851 0.200000 2.949925
v 5.000000 0.052329 0.006497
v 5.000000 0.052329 -0.098061
v 4.076710 0.052329 0.006497
v 4.076710 0.052329 -0.098061
v 4.339962 0.052329 0.006497
v 4.339962 0.052329 -0.098061
v 2.921606 0.052329 0.006497
v 2.921606 0.052329 -0.098061
v 2.685179 0.052329 0.006497
v 2.685179 0.052329 -0.098061
v 1.474716 0.052329 0.006497
v 1.474716 0.052329 -0.098061
v 1.147166 0.052329 0.006497
v 1.147166 0.052329 -0.098061
v 0.125851 0.052329 0.006497
v 0.125851 0.052329 -0.098061
v 5.030952 -0.000000 -2.710913
v 5.025527 0.200000 -2.752115
v 4.999432 0.200000 -2.950329
v 5.385323 0.000000 -0.019200
v 5.371675 -0.000000 -0.122863
v 5.061317 -0.000000 -2.717402
v 5.050561 0.200000 -2.757543
v 4.998816 0.200000 -2.950656
v 5.763995 0.000000 -0.094971
v 5.736933 -0.000000 -0.195967
v 5.090575 -0.000000 -2.727799
v 5.074672 0.200000 -2.766193
v 4.998163 0.200000 -2.950899
v 6.129537 0.000000 -0.219521
v 6.089525 -0.000000 -0.316120
v 5.118226 -0.000000 -2.741926
v 5.097447 0.200000 -2.777915
v 4.997484 0.200000 -2.951056
v 6.475696 0.000000 -0.390719
v 6.423417 -0.000000 -0.481269
v 5.143796 -0.000000 -2.759542
v 5.118497 0.200000 -2.792511
v 4.996790 0.200000 -2.951122
v 6.796546 0.000000 -0.605634
v 6.732896 -0.000000 -0.688586
v 5.166849 -0.000000 -2.780344
v 5.137463 0.200000 -2.809728
v 4.996094 0.200000 -2.951097
v 7.086601 0.000000 -0.860590
v 7.012667 -0.000000 -0.934524
v 5.186988 -0.000000 -2.803977
v 5.154018 0.200000 -2.829274
v 4.995407 0.200000 -2.950982
v 7.340895 0.000000 -1.151225
v 7.257944 -0.000000 -1.214876
v 5.203871 -0.000000 -2.830037
v 5.167881 0.200000 -2.850814
v 4.994741 0.200000 -2.950777
v 7.555078 0.000000 -1.472566
v 7.464529 -0.000000 -1.524845
v 5.217207 -0.000000 -2.858077
v 5.178813 0.200000 -2.873979
v 4.994107 0.200000 -2.950488
v 7.725486 0.000000 -1.819113
v 7.628887 -0.000000 -1.859126
v 5.226770 -0.000000 -2.887618
v 5.186629 0.200000 -2.898373
v 4.993516 0.200000 -2.950118
v 7.849202 0.000000 -2.184939
v 7.748206 -0.000000 -2.212001
v 5.232395 -0.000000 -2.918155
v 5.191194 0.200000 -2.923578
v 4.992979 0.200000 -2.949674
v 7.924109 0.000000 -2.563783
v 7.820446 -0.000000 -2.577431
v 5.233986 -0.000000 -2.949164
v 5.192429 0.200000 -2.949164
v 4.992504 0.200000 -2.949164
v 7.948927 0.000000 -2.949164
v 7.844369 -0.000000 -2.949164
v 5.025412 0.000000 2.752112
v 5.025412 0.200000 2.752112
v 4.999317 0.200000 2.950327
v 5.006809 -0.000102 0.004712
v 5.050331 0.000000 2.757523
v 5.050331 0.200000 2.757523
v 4.998587 0.200000 2.950636
v 5.760403 0.000000 0.107503
v 5.074331 0.000000 2.766140
v 5.074331 0.200000 2.766140
v 4.997823 0.200000 2.950847
v 6.124225 0.000000 0.231474
v 5.097001 0.000000 2.777817
v 5.097001 0.200000 2.777817
v 4.997038 0.200000 2.950957
v 6.468753 0.000000 0.401874
v 5.117952 0.000000 2.792352
v 5.117952 0.200000 2.792352
v 4.996245 0.200000 2.950963
v 6.788092 0.000000 0.615785
v 5.136827 0.000000 2.809498
v 5.136827 0.200000 2.809498
v 4.995459 0.200000 2.950866
v 7.076778 0.000000 0.869549
v 5.153303 0.000000 2.828961
v 5.153303 0.200000 2.828961
v 4.994692 0.200000 2.950667
v 7.329872 0.000000 1.135867
v 5.167098 0.000000 2.850407
v 5.167098 0.200000 2.850407
v 4.993957 0.200000 2.950370
v 7.543042 0.000000 1.446664
v 5.177975 0.000000 2.873471
v 5.177975 0.200000 2.873471
v 4.993268 0.200000 2.949979
v 7.712642 0.000000 1.733748
v 5.185748 0.000000 2.897758
v 5.185748 0.200000 2.897758
v 4.992635 0.200000 2.949502
v 7.835770 0.000000 2.187687
v 5.190285 0.000000 2.922851
v 5.190285 0.200000 2.922851
v 4.992070 0.200000 2.948946
v 7.851567 0.000000 2.247031
v 5.191508 0.000000 2.948321
v 5.191508 0.200000 2.948321
v 4.991582 0.200000 2.948321
v 7.935013 0.000000 2.948323
v 5.383645 0.000000 -0.021529
v 5.760668 0.000000 0.004363
v 6.124617 0.000000 0.115204
v 6.469265 0.000000 0.271132
v 6.787981 0.000603 0.522820
v 7.077503 0.000000 0.741797
v 7.327514 -0.000973 0.930238
v 7.543931 0.000000 1.229092
v 7.713591 0.000000 1.527162
v 7.836762 0.000000 1.925936
v 7.911337 0.000000 2.186067
v 7.936040 0.000000 2.512859
v 5.385335 0.046901 -0.019202
v 5.371688 0.046901 -0.122865
v 5.764008 0.046901 -0.094973
v 5.736946 0.046901 -0.195969
v 6.129550 0.046901 -0.219523
v 6.089538 0.046901 -0.316122
v 6.475708 0.046901 -0.390721
v 6.423429 0.046901 -0.481271
v 6.796559 -0.001045 -0.605636
v 6.732909 -0.001045 -0.688588
v 7.086614 -0.001045 -0.860592
v 7.012680 -0.001045 -0.934526
v 7.340908 0.046901 -1.151227
v 7.257957 0.046901 -1.214878
v 7.555091 0.046901 -1.472568
v 7.464541 0.046901 -1.524847
v 7.725499 -0.000454 -1.819116
v 7.628900 -0.000454 -1.859128
v 7.849215 -0.000454 -2.184941
v 7.748219 -0.000454 -2.212003
v 7.924122 0.046901 -2.563785
v 7.820459 0.046901 -2.577433
v 7.948940 0.046901 -2.949166
v 7.844382 0.046901 -2.949166
v 6.124238 0.001787 0.231472
v 5.760416 0.001787 0.107501
v 6.788105 0.046901 0.615783
v 6.468766 0.046901 0.401872
v 7.329885 -0.000505 1.158820
v 7.076791 -0.000505 0.869547
v 7.735734 0.046901 1.763354
v 7.543055 0.046901 1.446555
v 7.850482 0.003287 2.243032
v 7.835783 0.003287 2.187685
v 5.760681 0.001787 0.003262
v 6.124630 0.001787 0.186068
v 6.469278 0.046901 0.278706
v 6.787994 0.047505 0.479663
v 7.077516 -0.000505 0.741795
v 7.327527 -0.001479 1.019905
v 7.543944 0.046901 1.234575
v 7.713603 0.046901 1.526606
v 7.836775 0.003287 1.925934
v 7.911350 0.003287 2.186065
v 5.000000 0.047133 0.006497
v 5.000000 0.047133 -0.098061
v 5.385323 0.047133 -0.019200
v 5.371675 0.047133 -0.122863
v 6.475696 0.046052 -0.390719
v 6.423417 0.046052 -0.481269
v 6.796546 0.046052 -0.605634
v 6.732896 0.046052 -0.688586
v 7.555078 0.046695 -1.472566
v 7.464529 0.046695 -1.524845
v 7.725486 0.046695 -1.819113
v 7.628887 0.046695 -1.859126
v 7.849202 0.047299 -2.184939
v 7.748206 0.047299 -2.212001
v 7.924109 0.047299 -2.563783
v 7.820446 0.047299 -2.577431
v 5.760403 0.046226 0.107503
v 5.006809 0.046124 0.004712
v 5.383645 0.046226 -0.021529
v 5.760668 0.046226 0.002413
v 7.076720 -0.000234 0.869681
v 6.788034 -0.000234 0.615917
v 6.787923 0.000370 0.522952
v 7.077446 -0.000234 0.741929
v 7.835770 0.000805 2.187687
v 7.738000 0.000805 1.823579
v 7.713591 0.000805 1.538415
v 7.836762 0.000805 1.925936
v 6.468753 0.047623 0.401874
v 6.124225 0.047623 0.231474
v 6.124617 0.047623 0.118774
v 6.469265 0.047623 0.279366
v 7.543149 0.045967 1.447568
v 7.329978 0.045967 1.133920
v 7.327620 0.044993 0.928794
v 7.544037 0.045967 1.233244
v 7.935013 0.030550 2.948323
v 7.844032 0.030550 2.244754
v 7.908367 0.030550 2.186067
v 7.936040 0.030550 2.512859
vn -0.0000 -0.0000 -1.0000
vn -0.0000 -0.0000 1.0000
vn -0.0313 0.1033 0.9942
vn -0.0000 1.0000 -0.0000
vn -1.0000 -0.0000 -0.0000
vn 1.0000 -0.0000 -0.0000
vn 0.0792 0.2030 0.9760
vn 0.9997 0.0249 0.0057
vn 0.2059 0.2030 0.9573
vn 0.3291 0.2030 0.9222
vn -0.3225 0.0034 0.9466
vn 0.4467 0.2030 0.8714
vn 0.5565 -0.0000 0.8308
vn 0.5566 0.2030 0.8056
vn 0.6570 0.2030 0.7261
vn 0.7461 0.2030 0.6341
vn 0.8225 0.2030 0.5313
vn 0.3826 0.0151 -0.9238
vn -0.8974 -0.0000 -0.4412
vn 0.8848 0.2030 0.4194
vn 1.0000 -0.0007 -0.0010
vn 0.9320 0.2030 0.3003
vn -0.2588 -0.0000 0.9659
vn 0.9632 0.2030 0.1761
vn -0.7071 -0.0104 0.7071
vn 0.9780 0.2030 0.0488
vn 0.0032 1.0000 -0.0000
vn 0.0828 -0.0000 -0.9966
vn -0.0001 1.0000 -0.0000
vn 0.2122 -0.0000 -0.9772
vn 0.3379 -0.0000 -0.9412
vn 0.4579 -0.0000 -0.8890
vn 0.5700 -0.0000 -0.8216
vn 0.6724 -0.0000 -0.7402
vn 0.7632 -0.0000 -0.6461
vn 0.8411 -0.0000 -0.5410
vn 0.9045 -0.0000 -0.4266
vn 0.9524 -0.0000 -0.3048
vn 0.9840 -0.0000 -0.1779
vn 0.9988 -0.0000 -0.0479
vn -0.0009 1.0000 -0.0003
vn 0.0010 1.0000 -0.0002
vn 0.0020 1.0000 0.0003
vn -0.0023 1.0000 0.0002
vn 0.9956 0.0484 -0.0798
vn -0.9239 0.0003 0.3827
vn -0.0781 0.9969 0.0037
vn -0.0066 0.9999 0.0113
vn -0.8258 0.0083 0.5638
vn -0.4433 0.0001 -0.8963
vn 0.9712 -0.2382 -0.0027
vn -1.0000 0.0006 -0.0040
vn 1.0000 -0.0003 0.0040
vn 0.9470 0.0267 0.3202
vn 0.0659 -0.0210 -0.9976
vn 0.0061 1.0000 -0.0037
vn -0.0025 1.0000 0.0023
vn -0.5565 0.0002 0.8308
vn 0.4433 -0.0001 0.8964
vn 0.5535 -0.2955 -0.7787
vn 0.0483 -0.9979 -0.0440
vn -0.7361 0.6768 0.0062
vn -0.8565 0.0494 0.5138
vn 0.9979 -0.0003 0.0643
vn -0.9664 -0.0012 0.2570
vn -1.0000 0.0005 -0.0041
vn -0.9979 0.0003 -0.0642
vn 0.0206 0.9985 -0.0512
vn 0.6602 0.0064 0.7510
vn 0.9732 -0.2253 -0.0465
vn 0.9659 -0.0003 -0.2588
vn 0.7933 0.0109 -0.6087
vn 0.5000 -0.0002 -0.8660
vn -0.1305 0.0001 0.9914
vn -1.0000 0.0039 -0.0038
vn -0.6602 -0.0068 -0.7511
vn 0.6127 0.4814 0.6268
vn 0.1962 -0.0000 0.9806
vn -0.1962 -0.0000 -0.9806
vn -0.9914 0.0003 0.1305
vn 0.8660 -0.0003 -0.5000
vn -0.6088 0.0002 0.7934
vn 0.9613 -0.0038 -0.2756
vn -0.2588 -0.0110 0.9659
vn -0.8321 0.0002 -0.5546
vn -1.0000 0.0064 -0.0026
vn 0.8321 -0.0002 0.5546
vn 0.8666 0.0259 -0.4983
vn -0.9470 -0.0244 -0.3203
vn 0.9947 -0.1026 0.0048
vn 0.0665 -0.0000 0.9978
vn 0.9914 -0.0000 -0.1305
vn -0.0666 -0.0000 -0.9978
vn -0.5566 -0.0000 -0.8308
vn -0.8660 -0.0000 0.5000
vn 0.7934 -0.0000 -0.6088
vn -0.5000 -0.0000 0.8660
vn 0.8974 -0.0000 0.4413
vn 0.3827 -0.0000 -0.9239
vn 0.9810 -0.0000 0.1940
vn 0.1305 -0.0000 -0.9914
vn -0.9810 -0.0000 -0.1939
vn -0.0001 1.0000 0.0004
vn -0.1351 -0.0000 0.9908
vn 1.0000 -0.0000 0.0025
vn -0.0695 -0.0000 -0.9976
vn -0.0012 1.0000 0.0027
vn 0.5690 -0.5071 -0.6473
vn -0.5164 0.5149 0.6842
vn -0.9711 0.2387 -0.0055
vn -0.8057 0.5509 0.2176
vn 1.0000 -0.0000 0.0038
vn 0.4120 0.9020 -0.1291
vn -0.4433 -0.0000 0.8964
vn -1.0000 0.0001 -0.0034
vn 0.4147 0.1119 -0.9031
vn 0.0011 1.0000 -0.0023
vn -0.9999 0.0027 0.0115
vn 1.0000 -0.0025 0.0041
vn 0.8124 0.0153 -0.5829
vn -0.6868 -0.1446 -0.7123
vn 1.0000 -0.0000 0.0024
vn -0.9856 -0.1170 0.1224
vt 1.000000 0.000000
vt 0.700000 0.000000
vt 0.600000 0.000000
vt 0.527225 1.000000
vt 0.600000 1.000000
vt 0.700000 1.000000
vt 1.000000 1.000000
vt 0.527225 0.670545
vt 0.600000 0.670545
vt 0.700000 0.670545
vt 1.000000 0.670545
vt 1.000000 0.337212
vt 0.700000 0.337212
vt 0.600000 0.337212
vt 0.527225 0.000000
vt 0.527225 0.337212
vt 0.513612 0.337212
vt 0.513612 0.670545
vt 0.513612 0.000000
vt 0.513612 1.000000
vt 0.507602 1.000000
vt 0.507602 0.670545
vt 0.507602 0.000000
vt 0.507602 0.337212
vt 0.506737 0.337212
vt 0.506737 0.670545
vt 0.506737 0.000000
vt 0.506737 1.000000
vt 0.500568 1.000000
vt 0.500568 0.670545
vt 0.500568 0.000000
vt 0.500568 0.337212
vt 0.000000 0.000000
vt 0.926161 0.312313
vt 0.926161 0.312313
vt 0.926161 0.312313
vt 0.926161 0.312313
vt 0.926161 0.312313
vt 0.926161 0.312313
s 0
usemtl Road.001
f 1/1/1 8/2/1 12/2/1 3/1/1
f 8/2/1 7/3/1 11/3/1 12/2/1
f 25/4/2 10/5/2 14/5/2 26/4/2
f 10/5/2 9/6/2 13/6/2 14/5/2
f 2/7/3 4/7/3 13/6/3 9/6/3
f 32/8/4 22/9/4 10/5/4 25/4/4
f 22/9/4 24/10/4 9/6/4 10/5/4
f 20/11/4 2/7/4 9/6/4 24/10/4
f 8/2/4 1/1/4 19/12/4 23/13/4
f 7/3/4 8/2/4 23/13/4 21/14/4
f 21/14/4 23/13/4 24/10/4 22/9/4
f 28/15/4 7/3/4 21/14/4 31/16/4
f 32/8/5 31/16/5 71/16/5 72/8/5
f 24/10/5 23/13/5 69/13/5 70/10/5
f 36/17/4 31/16/4 32/8/4 37/18/4
f 38/19/4 28/15/4 31/16/4 36/17/4
f 37/18/4 32/8/4 25/4/4 33/20/4
f 33/20/2 25/4/2 26/4/2 34/20/2
f 7/3/1 28/15/1 29/15/1 11/3/1
f 41/21/2 33/20/2 34/20/2 42/21/2
f 45/22/4 37/18/4 33/20/4 41/21/4
f 46/23/4 38/19/4 36/17/4 44/24/4
f 22/9/1 32/8/1 72/8/1 68/9/1
f 28/15/1 38/19/1 39/19/1 29/15/1
f 52/25/4 44/24/4 45/22/4 53/26/4
f 54/27/4 46/23/4 44/24/4 52/25/4
f 53/26/4 45/22/4 41/21/4 49/28/4
f 49/28/2 41/21/2 42/21/2 50/28/2
f 38/19/1 46/23/1 47/23/1 39/19/1
f 57/29/2 49/28/2 50/28/2 58/29/2
f 61/30/4 53/26/4 49/28/4 57/29/4
f 62/31/4 54/27/4 52/25/4 60/32/4
f 31/16/2 21/14/2 67/14/2 71/16/2
f 46/23/1 54/27/1 55/27/1 47/23/1
f 54/27/1 62/31/1 63/31/1 55/27/1
f 45/22/5 44/24/5 75/24/5 76/22/5
f 61/30/5 60/32/5 79/32/5 80/30/5
f 23/13/2 19/12/2 65/12/2 69/13/2
f 19/33/6 20/33/6 66/33/6 65/33/6
f 20/11/1 24/10/1 70/10/1 66/11/1
f 44/24/2 36/17/2 73/17/2 75/24/2
f 60/32/2 52/25/2 77/25/2 79/32/2
f 37/18/1 45/22/1 76/22/1 74/18/1
f 53/26/1 61/30/1 80/30/1 78/26/1
f 36/17/6 37/18/6 74/18/6 73/17/6
f 52/25/6 53/26/6 78/26/6 77/25/6
f 21/14/6 22/9/6 68/9/6 67/14/6
f 20/33/5 19/33/5 245/33/5 246/33/5
f 2/7/4 20/11/4 85/11/4 81/7/4
f 4/7/7 2/7/7 81/7/7 82/7/7
f 194/34/8 164/12/8 230/12/8 239/34/8
f 82/7/9 81/7/9 86/7/9 87/7/9
f 81/7/4 85/11/4 90/11/4 86/7/4
f 86/7/4 90/11/4 95/11/4 91/7/4
f 90/33/4 89/33/4 94/33/4 95/33/4
f 87/7/10 86/7/10 91/7/10 92/7/10
f 91/7/4 95/11/4 100/11/4 96/7/4
f 148/12/11 152/12/11 225/12/11 226/12/11
f 92/7/12 91/7/12 96/7/12 97/7/12
f 96/7/4 100/11/4 105/11/4 101/7/4
f 99/33/13 104/33/13 251/33/13 249/33/13
f 97/7/14 96/7/14 101/7/14 102/7/14
f 101/7/4 105/11/4 110/11/4 106/7/4
f 139/33/1 140/33/1 224/33/1 223/33/1
f 102/7/15 101/7/15 106/7/15 107/7/15
f 106/7/4 110/11/4 115/11/4 111/7/4
f 110/33/4 109/33/4 114/33/4 115/33/4
f 107/7/16 106/7/16 111/7/16 112/7/16
f 112/7/17 111/7/17 116/7/17 117/7/17
f 111/7/4 115/11/4 120/11/4 116/7/4
f 125/33/18 124/33/18 217/33/18 218/33/18
f 125/11/19 120/11/19 254/11/19 256/11/19
f 117/7/20 116/7/20 121/7/20 122/7/20
f 116/7/4 120/11/4 125/11/4 121/7/4
f 160/12/21 193/35/21 238/35/21 227/12/21
f 122/7/22 121/7/22 126/7/22 127/7/22
f 121/7/4 125/11/4 130/11/4 126/7/4
f 130/33/23 129/33/23 257/33/23 258/33/23
f 127/7/24 126/7/24 131/7/24 132/7/24
f 126/7/4 130/11/4 135/11/4 131/7/4
f 109/33/25 110/33/25 212/33/25 211/33/25
f 132/7/26 131/7/26 136/7/26 137/7/26
f 131/7/4 135/11/4 140/11/4 136/7/4
f 19/12/27 1/1/27 141/1/27 144/12/27
f 1/1/28 3/1/28 142/1/28 141/1/28
f 144/12/29 141/1/29 145/1/29 148/12/29
f 141/1/30 142/1/30 146/1/30 145/1/30
f 148/12/4 145/1/4 149/1/4 152/12/4
f 145/1/31 146/1/31 150/1/31 149/1/31
f 152/12/4 149/1/4 153/1/4 156/12/4
f 149/1/32 150/1/32 154/1/32 153/1/32
f 156/12/4 153/1/4 157/1/4 160/12/4
f 153/1/33 154/1/33 158/1/33 157/1/33
f 160/12/4 157/1/4 161/1/4 164/12/4
f 157/1/34 158/1/34 162/1/34 161/1/34
f 164/12/4 161/1/4 165/1/4 168/12/4
f 161/1/35 162/1/35 166/1/35 165/1/35
f 168/12/4 165/1/4 169/1/4 172/12/4
f 165/1/36 166/1/36 170/1/36 169/1/36
f 172/12/4 169/1/4 173/1/4 176/12/4
f 169/1/37 170/1/37 174/1/37 173/1/37
f 176/12/4 173/1/4 177/1/4 180/12/4
f 173/1/38 174/1/38 178/1/38 177/1/38
f 180/12/4 177/1/4 181/1/4 184/12/4
f 177/1/39 178/1/39 182/1/39 181/1/39
f 184/12/4 181/1/4 185/1/4 188/12/4
f 181/1/40 182/1/40 186/1/40 185/1/40
f 189/36/4 190/37/4 89/33/4 84/33/4
f 190/37/4 191/38/4 94/33/4 89/33/4
f 191/38/4 192/37/4 99/33/4 94/33/4
f 192/37/41 193/35/41 104/33/41 99/33/41
f 193/35/42 194/34/42 109/33/42 104/33/42
f 194/34/43 195/38/43 114/33/43 109/33/43
f 195/38/44 196/38/44 119/33/44 114/33/44
f 196/38/4 197/39/4 124/33/4 119/33/4
f 197/39/4 198/38/4 129/33/4 124/33/4
f 198/38/4 199/37/4 134/33/4 129/33/4
f 199/37/4 200/37/4 139/33/4 134/33/4
f 200/37/45 199/37/45 283/37/45 284/37/45
f 95/33/46 94/33/46 205/33/46 206/33/46
f 197/39/47 176/12/47 270/12/47 271/39/47
f 195/38/48 194/34/48 239/34/48 240/38/48
f 168/12/49 172/12/49 277/12/49 278/12/49
f 100/11/50 95/11/50 206/11/50 208/11/50
f 193/35/51 160/12/51 266/12/51 267/35/51
f 192/37/52 156/12/52 228/12/52 237/37/52
f 156/12/53 192/37/53 276/37/53 273/12/53
f 130/11/54 125/11/54 218/11/54 220/11/54
f 190/37/55 189/36/55 263/36/55 264/37/55
f 210/33/4 209/33/4 211/33/4 212/33/4
f 218/33/4 217/33/4 219/33/4 220/33/4
f 234/12/4 233/12/4 244/37/4 243/38/4
f 230/12/56 229/12/56 240/38/56 239/34/56
f 226/12/4 225/12/4 236/38/4 235/37/4
f 156/12/58 160/12/58 227/12/58 228/12/58
f 94/33/59 99/33/59 207/33/59 205/33/59
f 193/35/60 192/37/60 237/37/60 238/35/60
f 164/12/61 168/12/61 229/12/61 230/12/61
f 168/12/62 195/38/62 240/38/62 229/12/62
f 172/12/63 176/12/63 231/12/63 232/12/63
f 134/33/64 139/33/64 223/33/64 221/33/64
f 180/12/65 184/12/65 233/12/65 234/12/65
f 196/38/66 172/12/66 232/12/66 241/38/66
f 140/11/67 135/11/67 222/11/67 224/11/67
f 191/38/68 190/37/68 235/37/68 236/38/68
f 110/11/69 105/11/69 210/11/69 212/11/69
f 176/12/70 197/39/70 242/39/70 231/12/70
f 89/33/71 90/33/71 204/33/71 203/33/71
f 105/33/72 104/33/72 209/33/72 210/33/72
f 119/33/73 120/33/73 216/33/73 215/33/73
f 135/33/74 134/33/74 221/33/74 222/33/74
f 198/38/75 180/12/75 234/12/75 243/38/75
f 104/33/76 109/33/76 211/33/76 209/33/76
f 184/12/77 199/37/77 244/37/77 233/12/77
f 84/33/78 89/33/78 203/33/78 201/33/78
f 90/11/79 85/11/79 202/11/79 204/11/79
f 85/33/80 84/33/80 201/33/80 202/33/80
f 99/33/81 100/33/81 208/33/81 207/33/81
f 115/33/82 114/33/82 213/33/82 214/33/82
f 199/37/83 198/38/83 243/38/83 244/37/83
f 129/33/84 130/33/84 220/33/84 219/33/84
f 120/11/85 115/11/85 214/11/85 216/11/85
f 190/37/86 148/12/86 226/12/86 235/37/86
f 114/33/87 119/33/87 215/33/87 213/33/87
f 197/39/88 196/38/88 241/38/88 242/39/88
f 124/33/89 129/33/89 219/33/89 217/33/89
f 152/12/90 191/38/90 236/38/90 225/12/90
f 19/33/91 84/33/91 247/33/91 245/33/91
f 84/33/92 85/33/92 248/33/92 247/33/92
f 85/11/93 20/11/93 246/11/93 248/11/93
f 105/11/94 100/11/94 250/11/94 252/11/94
f 100/33/95 99/33/95 249/33/95 250/33/95
f 104/33/96 105/33/96 252/33/96 251/33/96
f 120/33/97 119/33/97 253/33/97 254/33/97
f 119/33/98 124/33/98 255/33/98 253/33/98
f 124/33/99 125/33/99 256/33/99 255/33/99
f 129/33/100 134/33/100 259/33/100 257/33/100
f 134/33/101 135/33/101 260/33/101 259/33/101
f 135/11/102 130/11/102 258/11/102 260/11/102
f 144/12/104 148/12/104 261/12/104 262/12/104
f 148/12/105 190/37/105 264/37/105 261/12/105
f 189/33/106 144/33/106 262/33/106 263/33/106
f 266/12/107 265/12/107 268/34/107 267/35/107
f 160/12/108 164/12/108 265/12/108 266/12/108
f 194/34/109 193/35/109 267/35/109 268/34/109
f 164/12/110 194/34/110 268/34/110 265/12/110
f 270/12/4 269/12/4 272/38/4 271/39/4
f 176/12/111 180/12/111 269/12/111 270/12/111
f 180/12/112 198/38/112 272/38/112 269/12/112
f 198/38/113 197/39/113 271/39/113 272/38/113
f 152/12/114 156/12/114 273/12/114 274/12/114
f 191/38/115 152/12/115 274/12/115 275/38/115
f 192/37/116 191/38/116 275/38/116 276/37/116
f 195/38/118 168/12/118 278/12/118 279/38/118
f 172/12/119 196/38/119 280/38/119 277/12/119
f 196/38/120 195/38/120 279/38/120 280/38/120
f 199/37/121 184/12/121 282/12/121 283/37/121
f 188/33/122 200/33/122 284/33/122 281/33/122
f 184/12/123 188/12/123 281/12/123 282/12/123
usemtl Linea.001
f 71/16/4 67/14/4 68/9/4 72/8/4
f 69/13/4 65/12/4 66/11/4 70/10/4
f 75/24/4 73/17/4 74/18/4 76/22/4
f 79/32/4 77/25/4 78/26/4 80/30/4
f 202/33/4 201/33/4 203/33/4 204/33/4
f 206/33/4 205/33/4 207/33/4 208/33/4
f 214/33/4 213/33/4 215/33/4 216/33/4
f 222/33/4 221/33/4 223/33/4 224/33/4
f 232/12/4 231/12/4 242/39/4 241/38/4
f 228/12/57 227/12/57 238/35/57 237/37/57
f 246/33/4 245/33/4 247/33/4 248/33/4
f 250/33/4 249/33/4 251/33/4 252/33/4
f 254/33/4 253/33/4 255/33/4 256/33/4
f 258/33/4 257/33/4 259/33/4 260/33/4
f 262/12/103 261/12/103 264/37/103 263/36/103
f 274/12/4 273/12/4 276/37/4 275/38/4
f 278/12/117 277/12/117 280/38/117 279/38/117
f 282/12/4 281/12/4 284/37/4 283/37/4
usemtl LineaAfuera.001
f 26/4/4 14/5/4 18/5/4 27/4/4
f 14/5/4 13/6/4 17/6/4 18/5/4
f 4/7/4 6/7/4 17/6/4 13/6/4
f 3/1/4 12/2/4 16/2/4 5/1/4
f 12/2/4 11/3/4 15/3/4 16/2/4
f 34/20/4 26/4/4 27/4/4 35/20/4
f 11/3/4 29/15/4 30/15/4 15/3/4
f 42/21/4 34/20/4 35/20/4 43/21/4
f 29/15/4 39/19/4 40/19/4 30/15/4
f 50/28/4 42/21/4 43/21/4 51/28/4
f 39/19/4 47/23/4 48/23/4 40/19/4
f 58/29/4 50/28/4 51/28/4 59/29/4
f 47/23/4 55/27/4 56/27/4 48/23/4
f 55/27/4 63/31/4 64/31/4 56/27/4
f 6/7/4 4/7/4 82/7/4 83/7/4
f 83/7/4 82/7/4 87/7/4 88/7/4
f 88/7/4 87/7/4 92/7/4 93/7/4
f 93/7/4 92/7/4 97/7/4 98/7/4
f 98/7/4 97/7/4 102/7/4 103/7/4
f 103/7/4 102/7/4 107/7/4 108/7/4
f 108/7/4 107/7/4 112/7/4 113/7/4
f 113/7/4 112/7/4 117/7/4 118/7/4
f 118/7/4 117/7/4 122/7/4 123/7/4
f 123/7/4 122/7/4 127/7/4 128/7/4
f 128/7/4 127/7/4 132/7/4 133/7/4
f 133/7/4 132/7/4 137/7/4 138/7/4
f 3/1/4 5/1/4 143/1/4 142/1/4
f 142/1/4 143/1/4 147/1/4 146/1/4
f 146/1/4 147/1/4 151/1/4 150/1/4
f 150/1/4 151/1/4 155/1/4 154/1/4
f 154/1/4 155/1/4 159/1/4 158/1/4
f 158/1/4 159/1/4 163/1/4 162/1/4
f 162/1/4 163/1/4 167/1/4 166/1/4
f 166/1/4 167/1/4 171/1/4 170/1/4
f 170/1/4 171/1/4 175/1/4 174/1/4
f 174/1/4 175/1/4 179/1/4 178/1/4
f 178/1/4 179/1/4 183/1/4 182/1/4
f 182/1/4 183/1/4 187/1/4 186/1/4
