# Blender 4.3.0
# www.blender.org
mtllib road7.mtl
o Plane.001
v 11.007818 -0.000001 -12.510611
v 5.549376 -0.000001 -12.510611
v 11.007818 0.199999 -12.510611
v 5.507818 0.199999 -12.510611
v 11.207744 0.199999 -12.510611
v 5.307894 0.199999 -12.510611
v 11.007818 -0.000001 -13.433900
v 11.007818 -0.000001 -13.170649
v 5.507818 -0.000001 -13.170649
v 5.507818 -0.000001 -13.433900
v 11.007818 0.199999 -13.433900
v 11.007818 0.199999 -13.170649
v 5.507818 0.199999 -13.170649
v 5.507818 0.199999 -13.433900
v 11.207744 0.199999 -13.431815
v 11.207744 0.199999 -13.170649
v 5.307894 0.199999 -13.170649
v 5.307894 0.199999 -13.433900
v 8.264316 -0.000001 -12.510611
v 8.159758 -0.000001 -12.510611
v 8.264316 -0.000001 -13.433900
v 8.159758 -0.000001 -13.433900
v 8.264316 -0.000001 -13.170649
v 8.159758 -0.000001 -13.170649
v 8.264316 0.052328 -12.510611
v 8.159758 0.052328 -12.510611
v 8.264316 0.052328 -13.170649
v 8.159758 0.052328 -13.170649
v 5.552692 -0.000001 -12.457486
v 5.511490 0.199999 -12.462911
v 5.313275 0.199999 -12.489006
v 8.244406 -0.000001 -12.103115
v 8.140741 -0.000001 -12.116763
v 5.549046 -0.000001 -12.404385
v 5.508904 0.199999 -12.415140
v 5.315792 0.199999 -12.466885
v 8.171476 -0.000001 -11.701706
v 8.070481 -0.000001 -11.728767
v 5.538499 -0.000001 -12.352213
v 5.500105 0.199999 -12.368116
v 5.315399 0.199999 -12.444624
v 8.046777 -0.000001 -11.313250
v 7.950178 -0.000001 -11.353262
v 5.521234 -0.000001 -12.301863
v 5.485244 0.199999 -12.322642
v 5.312104 0.199999 -12.422605
v 7.872441 -0.000001 -10.944393
v 7.781891 -0.000001 -10.996673
v 5.497543 -0.000001 -12.254198
v 5.464574 0.199999 -12.279497
v 5.305963 0.199999 -12.401203
v 7.651451 -0.000001 -10.601447
v 7.568499 -0.000001 -10.665099
v 5.467834 -0.000001 -12.210033
v 5.438449 0.199999 -12.239420
v 5.297081 0.199999 -12.380787
v 7.387588 -0.000001 -10.290280
v 7.313654 -0.000001 -10.364216
v 5.432615 -0.000001 -12.170125
v 5.407317 0.199999 -12.203094
v 5.285610 0.199999 -12.361706
v 7.085366 -0.000001 -10.016216
v 7.021716 -0.000001 -10.099170
v 5.392488 -0.000001 -12.135155
v 5.371710 0.199999 -12.171144
v 5.271747 0.199999 -12.344284
v 6.749958 -0.000001 -9.783945
v 6.697680 -0.000001 -9.874497
v 5.348140 -0.000001 -12.105721
v 5.332237 0.199999 -12.144114
v 5.255729 0.199999 -12.328820
v 6.387102 -0.000001 -9.597441
v 6.347091 -0.000001 -9.694042
v 5.300329 -0.000001 -12.082327
v 5.289573 0.199999 -12.122469
v 5.237828 0.199999 -12.315580
v 6.003007 -0.000001 -9.459894
v 5.975946 -0.000001 -9.560892
v 5.249873 -0.000001 -12.065374
v 5.244450 0.199999 -12.106577
v 5.218353 0.199999 -12.304790
v 5.604244 -0.000001 -9.373659
v 5.590597 -0.000001 -9.477324
v 5.197637 -0.000001 -12.055153
v 5.197638 0.199999 -12.096710
v 5.197637 0.199999 -12.296635
v 5.197636 -0.000001 -9.340210
v 5.197638 -0.000001 -9.444771
v 10.964437 -0.000001 -11.745016
v 10.964437 0.199999 -11.745016
v 11.162652 0.199999 -11.718922
v 8.244406 -0.000001 -12.103115
v 10.821497 -0.000001 -10.991635
v 10.821497 0.199999 -10.991635
v 11.014609 0.199999 -10.939891
v 8.171476 -0.000001 -11.701706
v 10.581443 -0.000001 -10.263357
v 10.581443 0.199999 -10.263357
v 10.766150 0.199999 -10.186849
v 8.046777 -0.000001 -11.313250
v 10.248384 -0.000001 -9.572641
v 10.248384 0.199999 -9.572641
v 10.421524 0.199999 -9.472679
v 7.872441 -0.000001 -10.944393
v 9.828017 -0.000001 -8.931309
v 9.828017 0.199999 -8.931309
v 9.986629 0.199999 -8.809602
v 7.651451 -0.000001 -10.601447
v 9.327537 -0.000001 -8.350331
v 9.327537 0.199999 -8.350331
v 9.468906 0.199999 -8.208963
v 7.387588 -0.000001 -10.290280
v 8.755506 -0.000001 -7.839650
v 8.755506 0.199999 -7.839650
v 8.877213 0.199999 -7.681040
v 7.085366 -0.000001 -10.016216
v 8.121710 -0.000001 -7.408003
v 8.121710 0.199999 -7.408003
v 8.221673 0.199999 -7.234864
v 6.749958 -0.000001 -9.783945
v 7.436996 -0.000001 -7.062776
v 7.436996 0.199999 -7.062776
v 7.513505 0.199999 -6.878070
v 6.387102 -0.000001 -9.597441
v 6.713078 -0.000001 -6.809875
v 6.713078 0.199999 -6.809875
v 6.764823 0.199999 -6.616763
v 6.003007 -0.000001 -9.459894
v 5.962344 -0.000001 -6.653628
v 5.962344 0.199999 -6.653628
v 5.988440 0.200000 -6.455414
v 5.604244 -0.000001 -9.373659
v 5.197637 -0.000000 -6.596708
v 5.197637 0.200000 -6.596708
v 5.197639 0.200000 -6.396783
v 5.197636 -0.000001 -9.340210
v 8.171476 0.052410 -11.701706
v 8.070481 0.052410 -11.728767
v 8.046777 0.052410 -11.313250
v 7.950178 0.052410 -11.353262
v 7.872441 0.052410 -10.944393
v 7.781891 0.052410 -10.996673
v 7.387588 0.052410 -10.290280
v 7.313654 0.052410 -10.364216
v 7.085366 0.052410 -10.016216
v 7.021716 0.052410 -10.099170
v 6.749958 0.052410 -9.783945
v 6.697680 0.052410 -9.874497
v 6.003007 0.052410 -9.459894
v 5.975946 0.052410 -9.560892
v 5.604244 0.052410 -9.373659
v 5.590597 0.052410 -9.477324
v 5.197636 0.052410 -9.340210
v 5.197638 0.052410 -9.444771
vn -1.0000 -0.0000 -0.0000
vn 1.0000 -0.0000 -0.0000
vn 0.9992 0.0388 -0.0118
vn 0.9849 0.1658 -0.0502
vn 0.9772 0.2031 -0.0615
vn -0.0000 1.0000 -0.0000
vn -0.0000 -0.0000 -1.0000
vn -0.0000 -0.0000 1.0000
vn 0.9777 0.2003 -0.0631
vn 0.9766 0.2024 -0.0729
vn 0.9779 0.1998 -0.0610
vn 0.9776 0.2003 0.0650
vn 0.9777 0.2024 0.0552
vn 0.9775 0.1998 0.0671
vn 0.9521 -0.0000 0.3057
vn 0.9607 0.2003 0.1921
vn 0.9622 0.2024 0.1823
vn 0.9604 0.1998 0.1942
vn 0.9274 0.2003 0.3158
vn 0.9302 0.2024 0.3063
vn 0.9269 0.1998 0.3178
vn 0.2588 -0.0000 -0.9659
vn 0.8783 0.2003 0.4342
vn 0.8822 0.2024 0.4252
vn 0.8774 0.1998 0.4361
vn 0.8141 0.2003 0.5451
vn 0.8192 0.2024 0.5367
vn 0.8130 0.1998 0.5469
vn 0.0820 -0.0000 0.9966
vn 0.7360 0.2003 0.6467
vn 0.7421 0.2024 0.6390
vn 0.7347 0.1998 0.6483
vn -0.9523 -0.0000 -0.3051
vn 0.6453 0.2002 0.7372
vn 0.6524 0.2024 0.7304
vn 0.6438 0.1998 0.7387
vn 0.5435 0.2003 0.8152
vn 0.5514 0.2024 0.8093
vn 0.5418 0.1998 0.8164
vn 0.4325 0.2003 0.8791
vn 0.4411 0.2024 0.8744
vn 0.4307 0.1998 0.8801
vn 0.7071 -0.0000 -0.7071
vn 0.3140 0.2003 0.9281
vn 0.3232 0.2024 0.9244
vn 0.3121 0.1998 0.9288
vn -0.0826 -0.0000 -0.9966
vn 0.1902 0.2003 0.9611
vn 0.1997 0.2024 0.9587
vn 0.1882 0.1998 0.9616
vn -0.9984 -0.0000 -0.0566
vn -0.9825 -0.0000 -0.1864
vn -0.9497 -0.0000 -0.3131
vn -0.9008 -0.0000 -0.4343
vn -0.8364 -0.0000 -0.5482
vn -0.7576 -0.0000 -0.6527
vn -0.6660 -0.0000 -0.7460
vn -0.5629 -0.0000 -0.8265
vn -0.4502 -0.0000 -0.8929
vn -0.3298 -0.0000 -0.9440
vn -0.2038 -0.0000 -0.9790
vn -0.0742 -0.0000 -0.9972
vn -0.9043 -0.0000 -0.4268
vn 0.9041 -0.0000 0.4273
vn -0.8660 -0.0000 0.5000
vn -0.6722 -0.0000 -0.7404
vn -0.5000 -0.0000 0.8660
vn 0.6718 -0.0000 0.7408
vn -0.5698 -0.0000 -0.8218
vn -0.2119 -0.0000 -0.9773
vn 0.5693 -0.0000 0.8221
vn 0.9659 -0.0000 -0.2588
vn 0.2114 -0.0000 0.9774
vn 0.9763 0.2029 -0.0752
vn 0.9778 0.2029 0.0529
vn 0.9625 0.2029 0.1801
vn 0.9308 0.2029 0.3042
vn 0.8831 0.2029 0.4231
vn 0.8203 0.2029 0.5347
vn 0.7435 0.2029 0.6372
vn 0.6540 0.2029 0.7288
vn 0.5532 0.2029 0.8079
vn 0.4431 0.2029 0.8732
vn 0.3253 0.2029 0.9236
vn 0.2019 0.2029 0.9582
vn -0.9497 -0.0000 -0.3130
vt 1.000000 0.000000
vt 0.700000 0.000000
vt 0.600000 0.000000
vt 0.600000 1.000000
vt 0.700000 1.000000
vt 1.000000 1.000000
vt 0.700000 0.670545
vt 0.600000 0.670545
vt 1.000000 0.670545
vt 0.700000 0.337212
vt 0.600000 0.337212
vt 1.000000 0.337212
vt 0.000000 0.000000
s 1
usemtl Road.004
f 3/1/1 8/2/1 1/1/1
f 12/2/1 7/3/1 8/2/1
f 14/4/2 9/5/2 10/4/2
f 9/5/3 4/6/4 2/6/5
f 10/4/6 24/7/6 22/8/6
f 24/7/6 2/6/6 20/9/6
f 23/10/6 1/1/6 8/2/6
f 21/11/6 8/2/6 7/3/6
f 22/8/6 23/10/6 21/11/6
f 28/7/7 23/10/7 24/7/7
f 27/10/2 19/12/2 23/10/2
f 25/13/8 20/13/8 19/13/8
f 26/9/1 24/7/1 20/9/1
f 2/6/9 30/6/10 29/6/11
f 19/13/6 33/13/6 32/13/6
f 20/9/6 29/6/6 33/9/6
f 33/9/6 34/6/6 38/9/6
f 32/13/6 38/13/6 37/13/6
f 29/6/12 35/6/13 34/6/14
f 38/9/6 39/6/6 43/9/6
f 37/13/15 139/13/15 42/13/15
f 34/6/16 40/6/17 39/6/18
f 39/6/19 45/6/20 44/6/21
f 43/9/6 44/6/6 48/9/6
f 38/13/22 137/13/22 37/13/22
f 47/13/6 53/13/6 52/13/6
f 44/6/23 50/6/24 49/6/25
f 48/9/6 49/6/6 53/9/6
f 52/13/6 58/13/6 57/13/6
f 49/6/26 55/6/27 54/6/28
f 53/9/6 54/6/6 58/9/6
f 82/13/29 153/13/29 87/13/29
f 54/6/30 60/6/31 59/6/32
f 58/9/6 59/6/6 63/9/6
f 43/9/33 138/9/33 38/9/33
f 59/6/34 65/6/35 64/6/36
f 63/9/6 64/6/6 68/9/6
f 67/13/6 73/13/6 72/13/6
f 64/6/37 70/6/38 69/6/39
f 68/9/6 69/6/6 73/9/6
f 73/9/6 74/6/6 78/9/6
f 72/13/6 78/13/6 77/13/6
f 69/6/40 75/6/41 74/6/42
f 78/9/6 79/6/6 83/9/6
f 58/13/43 143/13/43 57/13/43
f 74/6/44 80/6/45 79/6/46
f 83/9/6 84/6/6 88/9/6
f 88/9/47 152/9/47 83/9/47
f 79/6/48 85/6/49 84/6/50
f 1/1/6 92/12/6 89/1/6
f 1/1/51 90/1/51 3/1/51
f 89/1/6 96/12/6 93/1/6
f 89/1/52 94/1/52 90/1/52
f 93/1/6 100/12/6 97/1/6
f 93/1/53 98/1/53 94/1/53
f 97/1/6 104/12/6 101/1/6
f 97/1/54 102/1/54 98/1/54
f 101/1/6 108/12/6 105/1/6
f 101/1/55 106/1/55 102/1/55
f 105/1/6 112/12/6 109/1/6
f 105/1/56 110/1/56 106/1/56
f 109/1/6 116/12/6 113/1/6
f 109/1/57 114/1/57 110/1/57
f 113/1/6 120/12/6 117/1/6
f 113/1/58 118/1/58 114/1/58
f 117/1/6 124/12/6 121/1/6
f 117/1/59 122/1/59 118/1/59
f 121/1/6 128/12/6 125/1/6
f 121/1/60 126/1/60 122/1/60
f 125/1/6 132/12/6 129/1/6
f 125/1/61 130/1/61 126/1/61
f 129/1/6 136/12/6 133/1/6
f 129/1/62 134/1/62 130/1/62
f 48/9/63 140/9/63 43/9/63
f 87/13/1 154/13/1 88/13/1
f 42/13/64 141/13/64 47/13/64
f 67/13/65 148/13/65 68/13/65
f 63/9/66 144/9/66 58/9/66
f 47/13/67 142/13/67 48/13/67
f 57/13/68 145/13/68 62/13/68
f 68/9/69 146/9/69 63/9/69
f 83/9/70 150/9/70 78/9/70
f 62/13/71 147/13/71 67/13/71
f 78/13/72 149/13/72 77/13/72
f 77/13/73 151/13/73 82/13/73
f 3/1/1 12/2/1 8/2/1
f 12/2/1 11/3/1 7/3/1
f 14/4/2 13/5/2 9/5/2
f 9/5/3 13/5/2 4/6/4
f 10/4/6 9/5/6 24/7/6
f 24/7/6 9/5/6 2/6/6
f 23/10/6 19/12/6 1/1/6
f 21/11/6 23/10/6 8/2/6
f 22/8/6 24/7/6 23/10/6
f 28/7/7 27/10/7 23/10/7
f 27/10/2 25/12/2 19/12/2
f 25/13/8 26/13/8 20/13/8
f 26/9/1 28/7/1 24/7/1
f 2/6/9 4/6/74 30/6/10
f 19/13/6 20/13/6 33/13/6
f 20/9/6 2/6/6 29/6/6
f 33/9/6 29/6/6 34/6/6
f 32/13/6 33/13/6 38/13/6
f 29/6/12 30/6/75 35/6/13
f 38/9/6 34/6/6 39/6/6
f 37/13/15 137/13/15 139/13/15
f 34/6/16 35/6/76 40/6/17
f 39/6/19 40/6/77 45/6/20
f 43/9/6 39/6/6 44/6/6
f 38/13/22 138/13/22 137/13/22
f 47/13/6 48/13/6 53/13/6
f 44/6/23 45/6/78 50/6/24
f 48/9/6 44/6/6 49/6/6
f 52/13/6 53/13/6 58/13/6
f 49/6/26 50/6/79 55/6/27
f 53/9/6 49/6/6 54/6/6
f 82/13/29 151/13/29 153/13/29
f 54/6/30 55/6/80 60/6/31
f 58/9/6 54/6/6 59/6/6
f 43/9/33 140/9/33 138/9/33
f 59/6/34 60/6/81 65/6/35
f 63/9/6 59/6/6 64/6/6
f 67/13/6 68/13/6 73/13/6
f 64/6/37 65/6/82 70/6/38
f 68/9/6 64/6/6 69/6/6
f 73/9/6 69/6/6 74/6/6
f 72/13/6 73/13/6 78/13/6
f 69/6/40 70/6/83 75/6/41
f 78/9/6 74/6/6 79/6/6
f 58/13/43 144/13/43 143/13/43
f 74/6/44 75/6/84 80/6/45
f 83/9/6 79/6/6 84/6/6
f 88/9/47 154/9/47 152/9/47
f 79/6/48 80/6/85 85/6/49
f 1/1/6 19/12/6 92/12/6
f 1/1/51 89/1/51 90/1/51
f 89/1/6 92/12/6 96/12/6
f 89/1/52 93/1/52 94/1/52
f 93/1/6 96/12/6 100/12/6
f 93/1/53 97/1/86 98/1/53
f 97/1/6 100/12/6 104/12/6
f 97/1/54 101/1/54 102/1/54
f 101/1/6 104/12/6 108/12/6
f 101/1/55 105/1/55 106/1/55
f 105/1/6 108/12/6 112/12/6
f 105/1/56 109/1/56 110/1/56
f 109/1/6 112/12/6 116/12/6
f 109/1/57 113/1/57 114/1/57
f 113/1/6 116/12/6 120/12/6
f 113/1/58 117/1/58 118/1/58
f 117/1/6 120/12/6 124/12/6
f 117/1/59 121/1/59 122/1/59
f 121/1/6 124/12/6 128/12/6
f 121/1/60 125/1/60 126/1/60
f 125/1/6 128/12/6 132/12/6
f 125/1/61 129/1/61 130/1/61
f 129/1/6 132/12/6 136/12/6
f 129/1/62 133/1/62 134/1/62
f 48/9/63 142/9/63 140/9/63
f 87/13/1 153/13/1 154/13/1
f 42/13/64 139/13/64 141/13/64
f 67/13/65 147/13/65 148/13/65
f 63/9/66 146/9/66 144/9/66
f 47/13/67 141/13/67 142/13/67
f 57/13/68 143/13/68 145/13/68
f 68/9/69 148/9/69 146/9/69
f 83/9/70 152/9/70 150/9/70
f 62/13/71 145/13/71 147/13/71
f 78/13/72 150/13/72 149/13/72
f 77/13/73 149/13/73 151/13/73
usemtl Linea.004
f 28/7/6 25/12/6 27/10/6
f 137/13/6 140/13/6 139/13/6
f 139/13/6 142/13/6 141/13/6
f 143/13/6 146/13/6 145/13/6
f 145/13/6 148/13/6 147/13/6
f 149/13/6 152/13/6 151/13/6
f 151/13/6 154/13/6 153/13/6
f 28/7/6 26/9/6 25/12/6
f 137/13/6 138/13/6 140/13/6
f 139/13/6 140/13/6 142/13/6
f 143/13/6 144/13/6 146/13/6
f 145/13/6 146/13/6 148/13/6
f 149/13/6 150/13/6 152/13/6
f 151/13/6 152/13/6 154/13/6
usemtl LineaAfuera.004
f 18/4/6 13/5/6 14/4/6
f 13/5/6 6/6/6 4/6/6
f 5/1/6 12/2/6 3/1/6
f 12/2/6 15/3/6 11/3/6
f 4/6/6 31/6/6 30/6/6
f 30/6/6 36/6/6 35/6/6
f 35/6/6 41/6/6 40/6/6
f 40/6/6 46/6/6 45/6/6
f 45/6/6 51/6/6 50/6/6
f 50/6/6 56/6/6 55/6/6
f 55/6/6 61/6/6 60/6/6
f 60/6/6 66/6/6 65/6/6
f 65/6/6 71/6/6 70/6/6
f 70/6/6 76/6/6 75/6/6
f 75/6/6 81/6/6 80/6/6
f 80/6/6 86/6/6 85/6/6
f 5/1/6 90/1/6 91/1/6
f 91/1/6 94/1/6 95/1/6
f 95/1/6 98/1/6 99/1/6
f 99/1/6 102/1/6 103/1/6
f 103/1/6 106/1/6 107/1/6
f 107/1/6 110/1/6 111/1/6
f 111/1/6 114/1/6 115/1/6
f 115/1/6 118/1/6 119/1/6
f 119/1/6 122/1/6 123/1/6
f 123/1/6 126/1/6 127/1/6
f 127/1/6 130/1/6 131/1/6
f 131/1/6 134/1/6 135/1/6
f 18/4/6 17/5/6 13/5/6
f 13/5/6 17/5/6 6/6/6
f 5/1/6 16/2/6 12/2/6
f 12/2/6 16/2/6 15/3/6
f 4/6/6 6/6/6 31/6/6
f 30/6/6 31/6/6 36/6/6
f 35/6/6 36/6/6 41/6/6
f 40/6/6 41/6/6 46/6/6
f 45/6/6 46/6/6 51/6/6
f 50/6/6 51/6/6 56/6/6
f 55/6/6 56/6/6 61/6/6
f 60/6/6 61/6/6 66/6/6
f 65/6/6 66/6/6 71/6/6
f 70/6/6 71/6/6 76/6/6
f 75/6/6 76/6/6 81/6/6
f 80/6/6 81/6/6 86/6/6
f 5/1/6 3/1/6 90/1/6
f 91/1/6 90/1/6 94/1/6
f 95/1/6 94/1/6 98/1/6
f 99/1/6 98/1/6 102/1/6
f 103/1/6 102/1/6 106/1/6
f 107/1/6 106/1/6 110/1/6
f 111/1/6 110/1/6 114/1/6
f 115/1/6 114/1/6 118/1/6
f 119/1/6 118/1/6 122/1/6
f 123/1/6 122/1/6 126/1/6
f 127/1/6 126/1/6 130/1/6
f 131/1/6 130/1/6 134/1/6
